<?xml version="1.0" encoding="UTF-8"?>
<svg xmlns="http://www.w3.org/2000/svg" xmlns:xlink="http://www.w3.org/1999/xlink" width="32pt" height="24pt" viewBox="0 0 32 24" version="1.1">
<defs>
<filter id="alpha" filterUnits="objectBoundingBox" x="0%" y="0%" width="100%" height="100%">
  <feColorMatrix type="matrix" in="SourceGraphic" values="0 0 0 0 1 0 0 0 0 1 0 0 0 0 1 0 0 0 1 0"/>
</filter>
<mask id="mask0">
  <g filter="url(#alpha)">
<rect x="0" y="0" width="32" height="24" style="fill:rgb(0%,0%,0%);fill-opacity:0.101961;stroke:none;"/>
  </g>
</mask>
<clipPath id="clip1">
  <rect width="32" height="24"/>
</clipPath>
<g id="surface6" clip-path="url(#clip1)">
<path style=" stroke:none;fill-rule:nonzero;fill:rgb(13.72549%,12.156863%,12.54902%);fill-opacity:1;" d="M 4.007812 23.949219 L 15.910156 14.476562 L 15.992188 13.972656 L 3.722656 5.226562 L 3.695312 23.527344 Z M 4.007812 23.949219 "/>
</g>
<linearGradient id="linear0" gradientUnits="userSpaceOnUse" x1="0.0000388991" y1="0.499976" x2="1.000322" y2="0.499976" gradientTransform="matrix(31.644531,0,0,21.628906,0.199219,2.320312)">
<stop offset="0" style="stop-color:rgb(0%,0%,0%);stop-opacity:0.101961;"/>
<stop offset="1" style="stop-color:rgb(0%,0%,0%);stop-opacity:0.2;"/>
</linearGradient>
</defs>
<g id="surface1">
<path style=" stroke:none;fill-rule:nonzero;fill:rgb(89.019608%,89.019608%,89.019608%);fill-opacity:1;" d="M 29.855469 23.949219 L 2.019531 23.949219 C 0.941406 23.949219 0.03125 23.078125 0.03125 21.980469 L 0.03125 2.082031 C 0.03125 1.011719 0.910156 0.113281 2.019531 0.113281 L 29.855469 0.113281 C 30.933594 0.113281 31.84375 0.984375 31.84375 2.082031 L 31.84375 21.980469 C 31.84375 23.078125 30.960938 23.949219 29.855469 23.949219 Z M 29.855469 23.949219 "/>
<use xlink:href="#surface6" mask="url(#mask0)"/>
<path style=" stroke:none;fill-rule:nonzero;fill:rgb(83.529412%,29.411765%,23.921569%);fill-opacity:1;" d="M 2.019531 23.949219 C 0.910156 23.949219 0.03125 23.078125 0.03125 21.980469 L 0.03125 2.050781 C 0.03125 0.957031 0.910156 0.757812 2.019531 0.757812 C 3.128906 0.757812 4.007812 0.984375 4.007812 2.050781 L 4.007812 23.949219 Z M 2.019531 23.949219 "/>
<path style=" stroke:none;fill-rule:nonzero;fill:rgb(84.313725%,16.862745%,15.294118%);fill-opacity:1;" d="M 2.019531 1.039062 C 3.4375 1.039062 3.722656 1.460938 3.722656 2.050781 L 3.722656 23.667969 L 2.019531 23.667969 C 1.082031 23.667969 0.316406 22.910156 0.316406 21.980469 L 0.316406 2.050781 C 0.316406 1.433594 0.597656 1.039062 2.019531 1.039062 Z M 2.019531 0.757812 C 0.910156 0.757812 0.03125 0.984375 0.03125 2.050781 L 0.03125 21.980469 C 0.03125 23.078125 0.910156 23.949219 2.019531 23.949219 L 4.007812 23.949219 L 4.007812 2.050781 C 4.007812 0.957031 3.128906 0.757812 2.019531 0.757812 Z M 2.019531 0.757812 "/>
<path style=" stroke:none;fill-rule:nonzero;fill:rgb(83.529412%,29.411765%,23.921569%);fill-opacity:1;" d="M 29.855469 23.949219 L 27.867188 23.949219 L 27.867188 1.996094 C 27.867188 0.898438 28.746094 0.757812 29.855469 0.757812 C 30.960938 0.757812 31.84375 0.898438 31.84375 1.996094 L 31.84375 22.011719 C 31.84375 23.078125 30.960938 23.949219 29.855469 23.949219 Z M 29.855469 23.949219 "/>
<path style=" stroke:none;fill-rule:nonzero;fill:rgb(84.313725%,16.862745%,15.294118%);fill-opacity:1;" d="M 29.855469 1.039062 C 31.132812 1.039062 31.558594 1.292969 31.558594 1.996094 L 31.558594 22.011719 C 31.558594 22.9375 30.792969 23.695312 29.855469 23.695312 L 28.148438 23.695312 L 28.148438 1.996094 C 28.148438 1.265625 28.574219 1.039062 29.855469 1.039062 Z M 29.855469 0.757812 C 28.746094 0.757812 27.867188 0.898438 27.867188 1.996094 L 27.867188 23.976562 L 29.855469 23.976562 C 30.960938 23.976562 31.84375 23.105469 31.84375 22.011719 L 31.84375 1.996094 C 31.84375 0.898438 30.960938 0.757812 29.855469 0.757812 Z M 29.855469 0.757812 "/>
<path style=" stroke:none;fill-rule:nonzero;fill:url(#linear0);" d="M 21.332031 23.949219 L 0.199219 2.871094 L 1.308594 3.316406 L 16.023438 13.800781 L 31.84375 2.320312 L 31.84375 22.011719 C 31.84375 23.078125 30.960938 23.949219 29.855469 23.949219 Z M 21.332031 23.949219 "/>
<path style=" stroke:none;fill-rule:nonzero;fill:rgb(83.529412%,29.411765%,23.921569%);fill-opacity:1;" d="M 15.910156 14.476562 L 0.882812 3.683594 C 0.00390625 3.035156 -0.253906 1.800781 0.398438 0.925781 C 1.054688 0.0546875 2.332031 -0.140625 3.242188 0.507812 L 15.9375 9.640625 L 28.71875 0.394531 C 29.597656 -0.253906 30.847656 -0.0546875 31.5 0.84375 C 32.15625 1.714844 31.957031 2.953125 31.046875 3.597656 Z M 15.910156 14.476562 "/>
<path style=" stroke:none;fill-rule:nonzero;fill:rgb(84.313725%,16.862745%,15.294118%);fill-opacity:1;" d="M 29.855469 0.28125 C 30.394531 0.28125 30.90625 0.535156 31.246094 0.984375 C 31.785156 1.742188 31.613281 2.78125 30.875 3.34375 L 15.910156 14.140625 L 1.054688 3.457031 C 0.285156 2.894531 0.0859375 1.828125 0.628906 1.097656 C 0.941406 0.675781 1.480469 0.394531 2.046875 0.394531 C 2.417969 0.394531 2.785156 0.507812 3.070312 0.730469 L 15.738281 9.839844 L 15.910156 9.949219 L 16.078125 9.839844 L 28.832031 0.589844 C 29.144531 0.394531 29.484375 0.28125 29.855469 0.28125 Z M 29.855469 0 C 29.457031 0 29.03125 0.113281 28.691406 0.367188 L 15.910156 9.613281 L 3.210938 0.476562 C 2.871094 0.226562 2.445312 0.113281 2.019531 0.113281 C 1.394531 0.113281 0.769531 0.394531 0.371094 0.925781 C -0.253906 1.800781 0.00390625 3.035156 0.882812 3.683594 L 15.910156 14.503906 L 31.019531 3.597656 C 31.898438 2.953125 32.097656 1.742188 31.472656 0.84375 C 31.074219 0.28125 30.480469 0 29.855469 0 Z M 29.855469 0 "/>
</g>
</svg>
